<?xml version="1.0" standalone="no"?>
<!DOCTYPE svg PUBLIC "-//W3C//DTD SVG 20010904//EN"
 "http://www.w3.org/TR/2001/REC-SVG-20010904/DTD/svg10.dtd">
<svg version="1.0" xmlns="http://www.w3.org/2000/svg"
 width="512.000000pt" height="512.000000pt" viewBox="0 0 512.000000 512.000000"
 preserveAspectRatio="xMidYMid meet">
<metadata>
Created by potrace 1.14, written by Peter Selinger 2001-2017
</metadata>
<g transform="translate(0.000000,512.000000) scale(0.100000,-0.100000)"
fill="#000000" stroke="none">
<path d="M1357 5100 l-27 -21 0 -185 c0 -101 -4 -184 -8 -184 -4 0 -59 17
-122 38 -63 22 -159 50 -212 62 l-98 24 -27 -21 -28 -20 -3 -534 -2 -535 -129
-36 c-71 -20 -176 -55 -235 -78 -104 -41 -136 -65 -136 -102 0 -16 -10 -18
-77 -18 -133 0 -200 -30 -234 -104 -18 -39 -19 -92 -19 -1214 0 -758 4 -1180
10 -1192 5 -10 26 -24 46 -30 32 -11 39 -10 63 7 l26 20 5 1174 5 1174 82 3
83 3 0 -1476 c0 -1573 -2 -1521 45 -1539 9 -3 999 -6 2200 -6 2134 0 2183 0
2206 19 l24 19 3 1491 2 1491 79 0 c63 0 80 -3 85 -16 3 -9 6 -719 6 -1579 0
-1536 0 -1564 -19 -1575 -13 -7 -371 -10 -1090 -10 l-1069 0 -30 25 c-111 94
-293 94 -404 0 l-30 -25 -1077 0 c-824 0 -1080 3 -1089 12 -9 9 -12 72 -12
223 0 189 -2 214 -18 228 -30 27 -83 26 -112 -3 -19 -19 -20 -33 -20 -245 0
-202 2 -230 19 -263 23 -46 46 -67 94 -87 32 -13 171 -15 1157 -15 l1120 0 37
34 c54 47 75 56 135 56 55 0 74 -8 136 -62 l33 -28 1122 0 c1067 0 1124 1
1162 19 48 22 69 44 90 94 13 32 15 219 15 1634 0 1537 -1 1600 -19 1639 -33
74 -101 104 -232 104 l-76 0 -6 30 c-8 38 -36 56 -176 106 l-116 42 -3 261 -2
260 -27 20 c-20 17 -40 21 -92 21 -87 0 -281 -17 -404 -35 -448 -66 -921 -260
-1259 -517 -86 -65 -82 -67 -93 37 -9 88 -51 270 -87 377 -163 494 -483 828
-937 978 -158 52 -199 58 -234 30z m315 -220 c351 -151 609 -468 733 -900 74
-257 69 -166 73 -1543 l3 -1238 -60 115 c-32 63 -85 152 -117 198 -74 105
-247 278 -344 343 -108 72 -262 147 -379 185 l-101 32 0 1439 0 1438 52 -16
c29 -8 92 -32 140 -53z m-550 -264 c73 -24 150 -51 171 -60 l37 -16 0 -1278
c0 -1119 2 -1280 15 -1299 10 -14 34 -25 67 -32 155 -33 351 -118 475 -207
215 -154 387 -393 487 -681 33 -97 80 -273 73 -279 -1 -2 -30 34 -64 79 -326
435 -786 758 -1283 902 l-115 33 -3 1441 c-1 793 0 1441 3 1441 3 0 65 -20
137 -44z m3220 -935 c3 -376 4 -400 22 -420 13 -14 31 -21 57 -21 59 0 69 23
69 152 0 80 3 108 13 108 6 0 40 -10 75 -22 l62 -22 0 -1364 0 -1364 -22 5
c-13 2 -66 16 -118 31 -130 36 -330 72 -480 87 -147 14 -471 6 -600 -15 -47
-8 -86 -13 -88 -11 -6 5 200 79 309 110 213 62 409 93 651 104 133 6 160 9
177 25 21 19 21 21 21 921 0 891 0 902 -20 920 -28 25 -76 23 -103 -4 l-22
-22 -3 -844 -2 -845 -54 0 c-144 0 -383 -35 -596 -87 -338 -82 -694 -246 -960
-443 -44 -33 -82 -60 -85 -60 -3 0 -5 636 -5 1414 l0 1414 53 47 c182 160 488
336 757 435 251 92 589 159 852 169 l37 1 3 -399z m-3512 -1059 c0 -882 1
-940 18 -955 9 -8 62 -27 118 -41 412 -104 777 -316 1086 -632 94 -96 239
-268 272 -326 l17 -27 -58 26 c-269 119 -544 180 -864 190 -277 9 -503 -17
-774 -88 -66 -17 -130 -33 -142 -36 l-23 -5 0 1365 0 1365 153 51 c83 27 162
50 175 51 l22 0 0 -938z m875 -1941 c211 -36 417 -101 575 -182 l75 -38 -937
-1 -938 0 0 54 0 53 128 36 c179 51 306 75 542 101 95 11 440 -4 555 -23z
m2457 0 c147 -24 179 -31 351 -78 l127 -36 0 -53 0 -54 -937 1 -938 1 100 48
c183 90 446 163 676 189 133 15 473 5 621 -18z"/>
</g>
</svg>
